<svg width="32" height="32" viewBox="0 0 32 32" fill="none" xmlns="http://www.w3.org/2000/svg">
<path d="M15.6931 12.4016C16.738 11.6245 17.4172 10.3902 17.4172 8.99264C17.4172 6.64815 15.5102 4.74121 13.1657 4.74121C10.8212 4.74121 8.9143 6.64815 8.9143 8.99264C8.9143 10.3902 9.59348 11.6245 10.6384 12.4016C7.85634 13.4335 5.8645 16.111 5.8645 19.2457C5.8645 19.6049 6.15838 19.8988 6.51756 19.8988H19.8204C20.1796 19.8988 20.4735 19.6049 20.4735 19.2457C20.467 16.1045 18.4751 13.4335 15.6931 12.4016ZM10.2139 8.99264C10.2139 7.36652 11.5331 6.04733 13.1592 6.04733C14.7853 6.04733 16.1045 7.36652 16.1045 8.99264C16.1045 10.6188 14.7853 11.9379 13.1592 11.9379C11.5331 11.9379 10.2139 10.6122 10.2139 8.99264ZM7.19675 18.5861C7.52328 15.582 10.0702 13.2375 13.1592 13.2375C16.2482 13.2375 18.7951 15.582 19.1216 18.5861H7.19675Z" fill="black"/>
<path d="M22.0082 4.31673C17.1298 -0.561633 9.1951 -0.561633 4.31673 4.31673C-0.561633 9.1951 -0.561633 17.1298 4.31673 22.0082C6.75265 24.4441 9.95918 25.6653 13.1657 25.6653C15.3208 25.6653 17.4759 25.0971 19.4024 23.9935L25.8024 30.3935C26.4359 31.0269 27.2653 31.3469 28.1012 31.3469C28.9371 31.3469 29.7665 31.0335 30.4 30.3935C31.0073 29.7796 31.3469 28.9633 31.3469 28.0947C31.3469 27.2261 31.0073 26.4098 30.3935 25.7959L23.9935 19.3959C26.7429 14.6155 26.0898 8.39837 22.0082 4.31673ZM30.0408 28.0947C30.0408 28.6106 29.8384 29.1004 29.4727 29.4661C28.7347 30.2041 27.5527 30.2171 26.7886 29.5184L29.5249 26.782C29.8514 27.1478 30.0408 27.6049 30.0408 28.0947ZM28.6041 25.8547L25.8547 28.6041L20.5127 23.262C21.0351 22.8833 21.538 22.4718 22.0082 22.0082C22.4784 21.5445 22.8833 21.0351 23.262 20.5127L28.6041 25.8547ZM21.0808 21.0873C16.7118 25.4563 9.60653 25.4563 5.23755 21.0873C0.868571 16.7184 0.868571 9.61306 5.23755 5.24408C7.41878 3.06286 10.2922 1.96571 13.1592 1.96571C16.0261 1.96571 18.8996 3.05633 21.0808 5.24408C25.4498 9.60653 25.4498 16.7184 21.0808 21.0873Z" fill="black"/>
</svg>
