<svg width="32" height="32" viewBox="0 0 32 32" fill="none" xmlns="http://www.w3.org/2000/svg">
<g clip-path="url(#clip0_2_309)">
<path d="M30.2496 9H29.9996V7.62C29.9996 6.6975 29.2496 6 28.2496 6H12.7496C12.5507 6 12.36 5.92098 12.2193 5.78033C12.0787 5.63967 11.9996 5.44891 11.9996 5.25V3.75C11.9932 3.28788 11.8067 2.84651 11.4799 2.51971C11.1531 2.19291 10.7118 2.00646 10.2496 2H1.74964C1.29209 1.99465 0.851055 2.17079 0.523074 2.48987C0.195094 2.80895 0.00688369 3.24497 -0.000358786 3.7025V28C-0.00337412 28.2635 0.0462982 28.5249 0.14574 28.7689C0.245181 29.0129 0.392387 29.2346 0.578708 29.4209C0.765029 29.6073 0.986708 29.7545 1.23072 29.8539C1.47473 29.9533 1.73616 30.003 1.99964 30H30.2496C30.7039 30.0087 31.1431 29.8371 31.4711 29.5227C31.7991 29.2083 31.9891 28.7767 31.9996 28.3225V10.6775C31.9891 10.2233 31.7991 9.79172 31.4711 9.47731C31.1431 9.16291 30.7039 8.99128 30.2496 9ZM0.999641 28V3.7025C1.00681 3.51018 1.08964 3.32848 1.23009 3.19692C1.37055 3.06536 1.55727 2.99459 1.74964 3H10.2496C10.447 3.00506 10.6348 3.0857 10.7744 3.22527C10.9139 3.36484 10.9946 3.55268 10.9996 3.75V5.25C10.9996 5.71413 11.184 6.15924 11.5122 6.48743C11.8404 6.81562 12.2855 7 12.7496 7H28.2496C28.6221 7 28.9996 7.2125 28.9996 7.62V9H4.74964C4.29538 8.99128 3.85617 9.16291 3.52818 9.47731C3.20019 9.79172 3.01014 10.2233 2.99964 10.6775V28C3.00726 28.1333 2.98661 28.2667 2.93905 28.3915C2.89149 28.5163 2.81809 28.6296 2.72367 28.724C2.62925 28.8184 2.51593 28.8918 2.39115 28.9394C2.26638 28.987 2.13296 29.0076 1.99964 29C1.73442 29 1.48007 28.8946 1.29253 28.7071C1.105 28.5196 0.999641 28.2652 0.999641 28ZM9.93214 29C10.058 27.0835 10.908 25.2867 12.3098 23.9739C13.7116 22.6611 15.5603 21.9306 17.4809 21.9306C19.4015 21.9306 21.2501 22.6611 22.652 23.9739C24.0538 25.2867 24.9038 27.0835 25.0296 29H9.93214ZM30.9996 28.3225C30.9893 28.5115 30.9047 28.6888 30.7642 28.8157C30.6237 28.9426 30.4387 29.0089 30.2496 29H26.0321C25.9272 27.2428 25.2845 25.5603 24.1911 24.1806C23.0977 22.801 21.6065 21.791 19.9196 21.2875C20.8762 20.7485 21.6272 19.9077 22.0553 18.8967C22.4833 17.8856 22.5644 16.7612 22.2858 15.6992C22.0071 14.6372 21.3845 13.6974 20.5152 13.0268C19.6459 12.3561 18.5788 11.9923 17.4809 11.9923C16.3829 11.9923 15.3159 12.3561 14.4466 13.0268C13.5773 13.6974 12.9547 14.6372 12.676 15.6992C12.3974 16.7612 12.4784 17.8856 12.9065 18.8967C13.3346 19.9077 14.0856 20.7485 15.0421 21.2875C13.3553 21.791 11.8641 22.801 10.7707 24.1806C9.67728 25.5603 9.03455 27.2428 8.92964 29H3.74964C3.91637 28.6932 4.0024 28.3491 3.99964 28V10.6775C4.00999 10.4885 4.09462 10.3112 4.23511 10.1843C4.37559 10.0574 4.56053 9.99114 4.74964 10H30.2496C30.4387 9.99114 30.6237 10.0574 30.7642 10.1843C30.9047 10.3112 30.9893 10.4885 30.9996 10.6775V28.3225ZM17.4821 20.9325C16.6972 20.933 15.9298 20.7007 15.277 20.2649C14.6241 19.8291 14.1152 19.2095 13.8146 18.4844C13.514 17.7594 13.4352 16.9614 13.5883 16.1916C13.7413 15.4217 14.1192 14.7146 14.6742 14.1596C15.2292 13.6045 15.9364 13.2266 16.7062 13.0736C17.4761 12.9206 18.274 12.9994 18.9991 13.3C19.7242 13.6006 20.3438 14.1095 20.7795 14.7623C21.2153 15.4152 21.4476 16.1826 21.4471 16.9675C21.4452 18.0185 21.0268 19.0258 20.2836 19.769C19.5405 20.5121 18.5331 20.9305 17.4821 20.9325Z" fill="black"/>
</g>
<defs>
<clipPath id="clip0_2_309">
<rect width="32" height="32" fill="white"/>
</clipPath>
</defs>
</svg>
